<svg xmlns="http://www.w3.org/2000/svg" viewBox="0 0 500 500"><g id="freepik--Shadow--inject-73"><ellipse cx="250" cy="440.28" rx="204.27" ry="25.43" style="fill:#ebebeb"></ellipse></g><g id="freepik--Books--inject-73"><rect x="198.52" y="338.38" width="205.71" height="40.59" transform="translate(602.75 717.34) rotate(180)" style="fill:#FFC727"></rect><rect x="365.82" y="338.38" width="20.1" height="40.59" transform="translate(751.75 717.34) rotate(180)" style="fill:#37474f"></rect><rect x="349.98" y="338.38" width="8.39" height="40.59" transform="translate(708.35 717.34) rotate(180)" style="fill:#37474f"></rect><rect x="217.22" y="338.38" width="20.1" height="40.59" transform="translate(454.54 717.34) rotate(180)" style="fill:#37474f"></rect><rect x="50.84" y="323.4" width="205.71" height="30.17" transform="translate(-212.91 400.08) rotate(-75.12)" style="fill:#37474f"></rect><rect x="124.51" y="395.4" width="20.1" height="30.17" transform="translate(-296.72 435.1) rotate(-75.12)" style="fill:#FFC727"></rect><rect x="162.68" y="251.78" width="20.1" height="30.17" transform="translate(-129.55 365.26) rotate(-75.12)" style="fill:#FFC727"></rect><rect x="154.97" y="420.58" width="238.25" height="20.29" transform="translate(548.2 861.46) rotate(180)" style="fill:#FFC727"></rect><rect x="330.4" y="420.58" width="9.71" height="20.29" transform="translate(670.51 861.46) rotate(180)" style="fill:#a6a6a6"></rect><rect x="346.52" y="420.58" width="9.71" height="20.29" transform="translate(702.76 861.46) rotate(180)" style="fill:#a6a6a6"></rect><rect x="178.74" y="420.58" width="9.71" height="20.29" transform="translate(367.2 861.46) rotate(180)" style="fill:#a6a6a6"></rect><rect x="194.87" y="420.58" width="9.71" height="20.29" transform="translate(399.45 861.46) rotate(180)" style="fill:#a6a6a6"></rect><rect x="177.44" y="308.09" width="142.7" height="30.28" style="fill:#455a64"></rect><rect x="320.13" y="308.09" width="81.35" height="30.28" style="fill:#455a64"></rect><rect x="177.44" y="311.23" width="142.7" height="24" style="fill:#fff"></rect><path d="M186.67,316.17q16.68-.26,33.37-.35l33.36-.11,33.37.11q16.68.09,33.36.35-16.68.25-33.36.36l-33.37.1L220,316.52Q203.36,316.43,186.67,316.17Z" style="fill:#dbdbdb"></path><path d="M186.67,320.88q16.68-.25,33.37-.36l33.36-.1,33.37.1q16.68.11,33.36.36-16.68.25-33.36.35l-33.37.11L220,321.23Q203.36,321.14,186.67,320.88Z" style="fill:#dbdbdb"></path><path d="M186.67,325.59q16.68-.25,33.37-.36l33.36-.1,33.37.1q16.68.09,33.36.36-16.68.26-33.36.35l-33.37.11L220,325.94Q203.36,325.85,186.67,325.59Z" style="fill:#dbdbdb"></path><path d="M186.67,330.3q16.68-.26,33.37-.36l33.36-.11,33.37.11q16.68.09,33.36.36-16.68.26-33.36.35l-33.37.11L220,330.65Q203.36,330.56,186.67,330.3Z" style="fill:#dbdbdb"></path><rect x="191.34" y="219.01" width="116.79" height="21.74" style="fill:#a6a6a6"></rect><rect x="308.13" y="219.01" width="66.58" height="21.74" style="fill:#a6a6a6"></rect><rect x="191.34" y="221.27" width="116.79" height="17.23" style="fill:#fff"></rect><path d="M198.9,224.81q13.66-.18,27.31-.25l27.31-.08,27.31.08q13.65.06,27.3.25-13.65.18-27.3.26l-27.31.07-27.31-.07Q212.56,225,198.9,224.81Z" style="fill:#dbdbdb"></path><path d="M198.9,228.19q13.66-.18,27.31-.25l27.31-.08,27.31.08q13.65.06,27.3.25-13.65.18-27.3.26l-27.31.07-27.31-.07Q212.56,228.38,198.9,228.19Z" style="fill:#dbdbdb"></path><path d="M198.9,231.57q13.66-.18,27.31-.25l27.31-.08,27.31.08q13.65.06,27.3.25-13.65.19-27.3.26l-27.31.07-27.31-.07Q212.56,231.76,198.9,231.57Z" style="fill:#dbdbdb"></path><path d="M198.9,235q13.66-.18,27.31-.25l27.31-.08,27.31.08q13.65.06,27.3.25-13.65.2-27.3.26l-27.31.07-27.31-.07Q212.56,235.14,198.9,235Z" style="fill:#dbdbdb"></path><polygon points="155.64 273.99 127.2 380.84 110.98 441.76 95.33 437.59 111.55 376.67 139.99 269.82 155.64 273.99" style="fill:#FFC727"></polygon><polygon points="155.64 273.99 127.2 380.84 110.98 441.76 95.33 437.59 111.55 376.67 139.99 269.82 155.64 273.99" style="opacity:0.1"></polygon><rect x="78.31" y="318.91" width="110.57" height="12.84" transform="translate(482.34 279.92) rotate(104.91)" style="fill:#fff"></rect><path d="M149.62,279.79q-3.18,12.52-6.46,25l-6.6,25-6.7,25q-3.38,12.48-6.84,24.94,3.2-12.53,6.47-25l6.59-25,6.71-25Q146.17,292.25,149.62,279.79Z" style="fill:#dbdbdb"></path><path d="M147.19,279.14q-3.19,12.54-6.47,25l-6.59,25-6.71,25q-3.37,12.48-6.83,24.94,3.19-12.52,6.47-25l6.59-25,6.71-25Q143.74,291.6,147.19,279.14Z" style="fill:#dbdbdb"></path><path d="M144.76,278.5q-3.19,12.53-6.47,25l-6.59,25-6.71,25q-3.37,12.48-6.83,24.93,3.18-12.53,6.46-25l6.6-25,6.7-25Q141.29,291,144.76,278.5Z" style="fill:#dbdbdb"></path><path d="M142.32,277.85q-3.18,12.52-6.46,25l-6.6,25-6.7,25q-3.37,12.48-6.84,24.93,3.19-12.52,6.47-25l6.59-25,6.71-25Q138.87,290.3,142.32,277.85Z" style="fill:#dbdbdb"></path><rect x="257.27" y="378.96" width="119.55" height="41.62" transform="translate(634.09 799.54) rotate(180)" style="fill:#263238"></rect><rect x="173.3" y="378.96" width="83.97" height="41.62" transform="translate(430.57 799.54) rotate(180)" style="fill:#263238"></rect><rect x="257.27" y="383.28" width="119.55" height="32.98" transform="translate(634.09 799.54) rotate(180)" style="fill:#fff"></rect><path d="M369.08,409.48q-14,.25-27.95.35l-27.95.11-28-.11q-14-.09-28-.35,14-.25,28-.36l28-.1,27.95.1Q355.11,409.23,369.08,409.48Z" style="fill:#dbdbdb"></path><path d="M369.08,403q-14,.25-27.95.35l-27.95.11-28-.11q-14-.09-28-.35,14-.25,28-.36l28-.1,27.95.1Q355.11,402.74,369.08,403Z" style="fill:#dbdbdb"></path><path d="M369.08,396.54q-14,.25-27.95.35l-27.95.11-28-.11q-14-.09-28-.35,14-.26,28-.36l28-.11,27.95.11Q355.11,396.27,369.08,396.54Z" style="fill:#dbdbdb"></path><path d="M369.08,390.07q-14,.26-27.95.35l-27.95.11-28-.11q-14-.09-28-.35,14-.27,28-.36l28-.11,27.95.11Q355.11,389.8,369.08,390.07Z" style="fill:#dbdbdb"></path><rect x="185.43" y="279.85" width="219.42" height="28.36" style="fill:#c7c7c7"></rect><rect x="206.06" y="285.64" width="84.39" height="17.02" style="fill:#fff"></rect><rect x="310.82" y="285.64" width="79.22" height="2.63" style="fill:#fff"></rect><rect x="310.82" y="292.72" width="79.22" height="2.63" style="fill:#fff"></rect><rect x="310.82" y="299.79" width="79.22" height="2.63" style="fill:#fff"></rect><rect x="200.6" y="240.75" width="161.8" height="38.97" style="fill:#FFC727"></rect><rect x="330.16" y="240.75" width="15.08" height="38.97" style="fill:#263238"></rect><rect x="314.42" y="240.75" width="5.85" height="38.97" style="fill:#263238"></rect></g></svg>